<?xml version="1.0" encoding="UTF-8" standalone="no"?>
<svg width="23px" height="23px" viewBox="0 0 23 23" version="1.1" xmlns="http://www.w3.org/2000/svg" xmlns:xlink="http://www.w3.org/1999/xlink" xmlns:sketch="http://www.bohemiancoding.com/sketch/ns">
    <!-- Generator: Sketch 3.3.2 (12043) - http://www.bohemiancoding.com/sketch -->
    <title>Fill 867 + Fill 868</title>
    <desc>Created with Sketch.</desc>
    <defs></defs>
    <g id="Page-1" stroke="none" stroke-width="1" fill="none" fill-rule="evenodd" sketch:type="MSPage">
        <g id="Dashboard-Hover" sketch:type="MSArtboardGroup" transform="translate(-482.000000, -396.000000)" fill="#FFFFFF">
            <g id="Fill-867-+-Fill-868" sketch:type="MSLayerGroup" transform="translate(482.000000, 396.500000)">
                <path d="M11.07795,16.07925 L8.18823,18.9585 C7.47431,19.6698333 6.66425,20.0704167 5.84683,20.11625 C5.13015,20.156125 4.46177,19.9081667 3.96911,19.4168333 L3.04957,18.5001667 C2.04861,17.502375 2.04861,15.752 3.04911,14.7546667 L8.10911,9.713 C8.88697,8.93795833 9.67081,8.57266667 10.44039,8.62720833 C11.24033,8.68404167 12.04395,9.197375 12.70267,10.07325 C13.00765,10.4779583 13.58449,10.56 13.99113,10.2565833 C14.39731,9.95270833 14.47965,9.37841667 14.17467,8.97325 C13.19073,7.66608333 11.91101,6.89333333 10.57103,6.79845833 C9.65885,6.73383333 8.26735,6.96254167 6.80823,8.41683333 L1.74823,13.4585 C0.02461,15.175875 0.02461,18.0785 1.74823,19.7963333 L2.66823,20.7125417 C3.47599,21.5182917 4.54181,21.9537083 5.69273,21.9537083 C5.77783,21.9537083 5.86385,21.9514167 5.94987,21.946375 C7.22637,21.8753333 8.45043,21.2900417 9.48911,20.2546667 L12.37883,17.375875 C12.73809,17.0179167 12.73809,16.4372083 12.37883,16.07925 C12.01957,15.7212917 11.43675,15.7212917 11.07795,16.07925" id="Fill-867" sketch:type="MSShapeGroup"></path>
                <path d="M21.449294,2.45840833 L20.529294,1.54174167 C18.881574,-0.0990916667 15.932054,-0.675216667 14.168414,1.08340833 L10.848134,4.39165833 C10.488414,4.750075 10.488414,5.330325 10.848134,5.68828333 C11.207394,6.04624167 11.789754,6.04624167 12.149014,5.68828333 L15.469294,2.379575 C16.440814,1.411575 18.229754,1.84424167 19.228414,2.83836667 L20.148414,3.75503333 C20.638774,4.24361667 20.898214,4.81149167 20.898214,5.39815833 C20.898214,5.984825 20.638774,6.55315833 20.148414,7.04174167 L14.628414,12.5417417 C14.063534,13.104575 13.368474,13.1284083 13.005994,13.0926583 C12.358774,13.0284917 11.760314,12.6952833 11.444294,12.2232 C11.162774,11.8019917 10.590994,11.6878667 10.168714,11.968825 C9.745974,12.2497833 9.631434,12.818575 9.913414,13.2397833 C10.536714,14.171575 11.625074,14.798575 12.824294,14.916825 C12.958614,14.9301167 13.092474,14.9365333 13.225414,14.9365333 C14.249374,14.9365333 15.217674,14.54695 15.929294,13.8383667 L21.449294,8.33836667 C22.280514,7.51015833 22.738214,6.466075 22.738214,5.39815833 C22.738214,4.33024167 22.280514,3.28615833 21.449294,2.45840833" id="Fill-868" sketch:type="MSShapeGroup"></path>
            </g>
        </g>
    </g>
</svg>