<?xml version="1.0" encoding="UTF-8" standalone="no"?>
<svg width="22px" height="23px" viewBox="0 0 22 23" version="1.1" xmlns="http://www.w3.org/2000/svg" xmlns:xlink="http://www.w3.org/1999/xlink" xmlns:sketch="http://www.bohemiancoding.com/sketch/ns">
    <!-- Generator: Sketch 3.3.2 (12043) - http://www.bohemiancoding.com/sketch -->
    <title>Fill 610 + Fill 611</title>
    <desc>Created with Sketch.</desc>
    <defs></defs>
    <g id="Page-1" stroke="none" stroke-width="1" fill="none" fill-rule="evenodd" sketch:type="MSPage">
        <g id="Dashboard-Hover" sketch:type="MSArtboardGroup" transform="translate(-415.000000, -396.000000)" fill="#FFFFFF">
            <g id="Fill-610-+-Fill-611" sketch:type="MSLayerGroup" transform="translate(415.000000, 396.500000)">
                <path d="M10.5644,11.7957869 C10.597941,11.8289672 10.6376131,11.8556557 10.6819738,11.8736885 C10.7259738,11.892082 10.772859,11.901459 10.8197443,11.901459 C10.8666295,11.901459 10.9135148,11.892082 10.9575148,11.8736885 C11.0015148,11.8556557 11.0415475,11.8289672 11.0750885,11.7957869 L14.6812852,8.18922951 C14.821941,8.04857377 14.821941,7.82027869 14.6812852,7.6792623 C14.5402689,7.53860656 14.3119738,7.53860656 14.171318,7.6792623 L11.1804,10.6701803 L11.1804,0.721131148 C11.1804,0.52204918 11.0188262,0.36047541 10.8197443,0.36047541 C10.6206623,0.36047541 10.4590885,0.52204918 10.4590885,0.721131148 L10.4590885,10.6701803 L7.46817049,7.6792623 C7.3271541,7.53860656 7.09885902,7.53860656 6.95820328,7.6792623 C6.81718689,7.82027869 6.81718689,8.04857377 6.95820328,8.18922951 L10.5644,11.7957869 Z" id="Fill-610" sketch:type="MSShapeGroup"></path>
                <path d="M18.4561246,19.1933049 L14.8181902,19.1933049 C14.6191082,19.1933049 14.4575344,19.0320918 14.4575344,18.8326492 C14.4575344,18.6332066 14.6191082,18.4719934 14.8181902,18.4719934 L18.4561246,18.4719934 C18.6552066,18.4719934 18.8167803,18.6332066 18.8167803,18.8326492 C18.8167803,19.0320918 18.6552066,19.1933049 18.4561246,19.1933049 M21.9970426,16.5760262 C21.9956,16.5334689 21.9883869,16.4916328 21.9721574,16.4519607 C21.9703541,16.4476328 21.9671082,16.4443869 21.9653049,16.4404197 C21.9537639,16.4148131 21.9404197,16.3895672 21.9227475,16.3668459 L17.3752393,10.5963541 C17.3067148,10.5097967 17.2021246,10.4589443 17.0917639,10.4589443 L15.7277639,10.4589443 C15.5283213,10.4589443 15.3671082,10.6201574 15.3671082,10.8196 C15.3671082,11.0190426 15.5283213,11.1802557 15.7277639,11.1802557 L16.9168459,11.1802557 L20.8959607,16.2294361 L1.46455082,16.2294361 L5.44366557,11.1802557 L6.17832131,11.1802557 C6.37740328,11.1802557 6.53897705,11.0190426 6.53897705,10.8196 C6.53897705,10.6201574 6.37740328,10.4589443 6.17832131,10.4589443 L5.26874754,10.4589443 C5.15802623,10.4589443 5.05379672,10.5097967 4.98527213,10.5963541 L0.43812459,16.3668459 C0.420091803,16.3895672 0.407108197,16.4148131 0.395206557,16.4404197 C0.393403279,16.4443869 0.390157377,16.4476328 0.388714754,16.4519607 C0.37212459,16.4916328 0.365272131,16.5334689 0.363468852,16.5760262 C0.363108197,16.5810754 0.360583607,16.5854033 0.360583607,16.5900918 L0.360583607,20.1966492 C0.360583607,21.190977 1.16953443,21.9999279 2.1638623,21.9999279 L20.1966492,21.9999279 C21.190977,21.9999279 21.9999279,21.190977 21.9999279,20.1966492 L21.9999279,16.5900918 C21.9999279,16.5854033 21.9974033,16.5810754 21.9970426,16.5760262" id="Fill-611" sketch:type="MSShapeGroup"></path>
            </g>
        </g>
    </g>
</svg>