<?xml version="1.0" encoding="UTF-8" standalone="no"?>
<svg width="16px" height="16px" viewBox="0 0 16 16" version="1.1" xmlns="http://www.w3.org/2000/svg" xmlns:xlink="http://www.w3.org/1999/xlink" xmlns:sketch="http://www.bohemiancoding.com/sketch/ns">
    <!-- Generator: Sketch 3.3.2 (12043) - http://www.bohemiancoding.com/sketch -->
    <title>Fill 806</title>
    <desc>Created with Sketch.</desc>
    <defs></defs>
    <g id="Page-1" stroke="none" stroke-width="1" fill="none" fill-rule="evenodd" sketch:type="MSPage">
        <g id="Fill-806" sketch:type="MSLayerGroup" transform="translate(-1.000000, -1.000000)" fill="#343433">
            <g sketch:type="MSShapeGroup">
                <path d="M16.2992579,13.8855611 C15.8229853,12.9343492 14.256299,12.360742 12.0880053,11.5665987 C11.7816014,11.4545973 11.4629308,11.3377959 11.13306,11.214861 L11.13306,9.4905728 C11.3498627,9.2532365 11.8984029,8.54842769 11.9522702,7.45348067 C12.1029388,7.33827923 12.2234736,7.12094318 12.2933412,6.82600616 C12.4037426,6.35746697 12.3453418,5.80066001 12.0002708,5.49078947 C12.0234711,5.42998871 12.0522715,5.35772114 12.0789385,5.29025363 C12.3341417,4.64677892 12.8093476,3.44969729 12.6237453,2.52061901 C12.4136093,1.46993921 10.8839902,0.9998 9.46157244,0.9998 C8.42235945,0.9998 7.15727697,1.26033659 6.79567245,1.97821223 C6.39593412,2.01501269 6.09006363,2.17341467 5.88446106,2.45021813 C5.32098735,3.20996096 5.73859257,4.58731151 5.96286204,5.32732076 C5.97859557,5.37958808 5.99539578,5.4345221 6.00952929,5.48172269 C5.65539153,5.78972654 5.59485744,6.35293358 5.7063255,6.82600616 C5.77619304,7.12094318 5.89672788,7.3385459 6.0476631,7.45348067 C6.10046376,8.52762743 6.63647046,9.16096868 6.86634,9.38523815 L6.86634,11.214861 C6.53646921,11.3380626 6.21699855,11.454864 5.91032805,11.5671321 C3.74203428,12.3610087 2.1756147,12.9346158 1.70014209,13.8855611 C1.0076001,15.2709117 0.9996,16.6743959 0.9996,16.73333 C0.9996,16.8805318 1.11906816,17 1.26627,17 L16.73313,17 C16.8805985,17 16.9998,16.8805318 16.9998,16.73333 C16.9998,16.6743959 16.9920666,15.2709117 16.2992579,13.8855611"></path>
            </g>
        </g>
    </g>
</svg>