<?xml version="1.0" encoding="UTF-8" standalone="no"?>
<svg width="18px" height="18px" viewBox="0 0 18 18" version="1.1" xmlns="http://www.w3.org/2000/svg" xmlns:xlink="http://www.w3.org/1999/xlink" xmlns:sketch="http://www.bohemiancoding.com/sketch/ns">
    <!-- Generator: Sketch 3.3.2 (12043) - http://www.bohemiancoding.com/sketch -->
    <title>Fill 889 Copy 4</title>
    <desc>Created with Sketch.</desc>
    <defs></defs>
    <g id="Page-1" stroke="none" stroke-width="1" fill="none" fill-rule="evenodd" sketch:type="MSPage">
        <g id="Fill-889-Copy-4" sketch:type="MSLayerGroup" fill="#767676">
            <path d="M16.9768713,7.83266317 L9.43896958,7.83266317 L9.43896958,0.736018596 C9.43896958,0.415947691 9.17949181,0.15618 8.85913098,0.15618 C8.53877016,0.15618 8.27929239,0.415947691 8.27929239,0.736018596 L8.27929239,7.83266317 L0.892438596,7.83266317 C0.572367691,7.83266317 0.3126,8.09243086 0.3126,8.41250177 C0.3126,8.73257267 0.572367691,8.99234036 0.892438596,8.99234036 L8.27929239,8.99234036 L8.27929239,16.8201614 C8.27929239,17.1402323 8.53877016,17.4 8.85913098,17.4 C9.17949181,17.4 9.43896958,17.1402323 9.43896958,16.8201614 L9.43896958,8.99234036 L16.9768713,8.99234036 C17.2972321,8.99234036 17.5567099,8.73257267 17.5567099,8.41250177 C17.5567099,8.09243086 17.2972321,7.83266317 16.9768713,7.83266317" id="Fill-889" sketch:type="MSShapeGroup"></path>
        </g>
    </g>
</svg>